<?xml version="1.0" standalone="no"?>
<!DOCTYPE svg PUBLIC "-//W3C//DTD SVG 20010904//EN"
 "http://www.w3.org/TR/2001/REC-SVG-20010904/DTD/svg10.dtd">
<svg version="1.0" xmlns="http://www.w3.org/2000/svg"
 width="225.000000pt" height="150.000000pt" viewBox="0 0 225.000000 150.000000"
 preserveAspectRatio="xMidYMid meet">

<g transform="translate(0.000000,150.000000) scale(0.100000,-0.100000)"
fill="#000000" stroke="none">
<path d="M1240 1445 c-245 -45 -498 -228 -616 -446 -84 -154 -108 -253 -106
-444 1 -192 41 -327 141 -480 l46 -70 700 -3 700 -2 42 62 c23 35 56 92 73
128 l30 65 0 314 0 313 -39 78 c-52 105 -103 171 -198 260 -96 90 -161 130
-284 176 -155 59 -335 77 -489 49z m-267 -451 c10 -4 23 -18 28 -31 14 -37 11
-263 -4 -293 -16 -31 -67 -45 -130 -36 l-47 7 0 186 0 186 68 -6 c37 -3 75 -9
85 -13z m271 0 c3 -9 6 -54 6 -100 0 -75 -2 -84 -18 -84 -30 0 -31 -8 -6 -73
13 -33 24 -71 24 -85 0 -19 -4 -23 -26 -20 -23 3 -31 13 -55 78 -37 96 -38
130 -4 130 24 0 25 3 25 60 l0 60 -30 0 -30 0 0 -165 0 -165 -35 0 -35 0 0
183 c0 101 3 187 7 190 3 4 43 7 89 7 65 0 83 -3 88 -16z m216 -9 c0 -23 -4
-25 -45 -25 l-45 0 0 -55 0 -55 40 0 c36 0 40 -2 40 -25 0 -22 -4 -25 -40 -25
l-40 0 0 -60 0 -60 45 0 c38 0 45 -3 45 -20 0 -18 -7 -20 -75 -20 l-75 0 0
178 c0 98 3 182 7 185 3 4 37 7 75 7 66 0 68 -1 68 -25z m212 -105 c15 -69 30
-153 34 -187 7 -62 7 -63 -19 -63 -25 0 -37 16 -37 51 0 16 -7 19 -40 19 -39
0 -40 -1 -40 -35 0 -33 -2 -35 -31 -35 l-31 0 7 48 c8 57 54 290 61 315 4 13
14 17 37 15 l31 -3 28 -125z m176 37 c14 -48 27 -85 29 -83 3 2 17 42 32 88
25 73 31 83 52 83 l24 0 3 -182 2 -183 -30 0 -30 0 -1 68 -1 67 -16 -52 c-19
-69 -46 -73 -62 -10 -16 63 -18 65 -19 27 -1 -19 -4 -52 -7 -72 -6 -34 -10
-38 -35 -38 l-29 0 0 183 c0 101 3 187 7 191 4 4 18 6 32 4 21 -3 27 -13 49
-91z m-818 -366 c5 -11 10 -42 10 -70 l0 -51 -40 0 -40 0 0 40 c0 39 -1 40
-34 40 -71 0 -53 -71 39 -153 l65 -58 0 -83 0 -83 -46 -7 c-68 -9 -123 -7
-145 4 -16 9 -19 22 -19 75 l0 65 35 0 c35 0 35 0 35 -45 l0 -45 36 0 37 0 -5
52 c-6 55 -3 51 -98 130 l-45 37 0 69 c0 96 7 102 116 102 77 0 90 -2 99 -19z
m150 -71 l0 -90 40 0 40 0 0 90 0 90 40 0 40 0 0 -225 0 -225 -35 0 -35 0 0
100 0 100 -50 0 -50 0 0 -95 0 -95 -30 0 -30 0 0 220 0 220 35 0 35 0 0 -90z
m550 60 c0 -30 -1 -30 -55 -30 l-55 0 0 -65 0 -65 50 0 c49 0 50 -1 50 -30 0
-29 -1 -30 -50 -30 l-50 0 0 -95 0 -95 -35 0 -35 0 0 220 0 220 90 0 90 0 0
-30z m260 0 c0 -28 -3 -30 -35 -30 l-35 0 0 -195 0 -195 -35 0 -35 0 0 195 0
195 -35 0 c-32 0 -35 2 -35 30 l0 30 105 0 105 0 0 -30z m-500 -42 c46 -74 49
-88 15 -88 l-25 0 0 -145 0 -145 -35 0 -35 0 0 145 0 145 -30 0 c-16 0 -30 3
-30 6 0 13 82 144 90 144 5 0 28 -28 50 -62z"/>
<path d="M870 820 l0 -140 34 0 c42 0 46 11 46 143 0 114 -8 137 -50 137 l-30
0 0 -140z"/>
<path d="M1606 890 c-3 -8 -10 -43 -14 -77 -9 -62 -8 -63 15 -63 21 0 23 4 22
53 -1 63 -13 109 -23 87z"/>
</g>
</svg>
